<svg width="20" height="22" viewBox="0 0 20 22" fill="none" xmlns="http://www.w3.org/2000/svg">
<path d="M5.99797 14.9334H9.99797M5.99797 9.93341H13.998M5.49997 2.43341C3.94397 2.48041 3.01697 2.65341 2.37497 3.29541C1.49597 4.17541 1.49597 5.59041 1.49597 8.42141V14.9274C1.49597 17.7594 1.49597 19.1744 2.37497 20.0544C3.25297 20.9334 4.66797 20.9334 7.49597 20.9334H12.496C15.325 20.9334 16.739 20.9334 17.617 20.0534C18.497 19.1744 18.497 17.7594 18.497 14.9274V8.42141C18.497 5.59141 18.497 4.17541 17.617 3.29541C16.976 2.65341 16.048 2.48041 14.492 2.43341" stroke="black" stroke-width="1.5" stroke-linecap="round" stroke-linejoin="round"/>
<path d="M5.49597 2.68341C5.49597 1.71741 6.27997 0.933411 7.24597 0.933411H12.746C13.2101 0.933411 13.6552 1.11779 13.9834 1.44597C14.3116 1.77416 14.496 2.21928 14.496 2.68341C14.496 3.14754 14.3116 3.59266 13.9834 3.92085C13.6552 4.24904 13.2101 4.43341 12.746 4.43341H7.24597C6.78184 4.43341 6.33672 4.24904 6.00853 3.92085C5.68035 3.59266 5.49597 3.14754 5.49597 2.68341Z" stroke="black" stroke-width="1.5" stroke-linecap="round" stroke-linejoin="round"/>
</svg>
